<svg version="1" xmlns="http://www.w3.org/2000/svg" width="538.667" height="538.667" viewBox="0 0 404.000000 404.000000"><path d="M227.9 133.7c-32.1 39.4-62.4 76.7-67.4 82.8-4.9 6.1-16.6 20.5-26 31.9l-16.9 20.9-3.4-3.9c-1.9-2.1-12.7-15.4-24.2-29.4-39.1-48.1-46.1-56.5-46.8-56.7-.4-.1-4.7 4.8-9.7 10.9l-9 11.1v14.6c0 12.2.2 14.9 1.6 16.6.9 1.1 7.8 9.4 15.3 18.5 30.4 36.9 37.7 45.7 40.9 49 1.8 1.9 8.4 9.8 14.7 17.5 14.8 18.3 20.9 25 22 23.9.4-.5 8.3-10.1 17.4-21.4 38.5-47.3 54.7-67 55.1-67 .2 0 16.8 20.2 37 45l36.7 45 2.2-2.8c1.8-2.1 59.1-72.5 82.2-100.8 2.7-3.3 10.6-13.1 17.7-21.7L380 202l.1-15.5v-15.6l-8.2-9.5c-4.5-5.2-8.3-9.4-8.4-9.2-11.3 14.1-94.4 116-95.9 117.6l-2.3 2.3-21.4-26.3c-11.8-14.5-21.8-26.8-22.2-27.5-.4-.7.1-2.2 1.2-3.5 1.1-1.3 6.4-7.7 11.7-14.3 19.7-24.2 54-66.3 62.4-76.6l8.6-10.5-.1-14.6-.1-14.5-9.3-11.2C291 67 286.7 62 286.6 62c-.2 0-26.6 32.3-58.7 71.7z"/></svg>